HIERARCHY
ROOT Hips
{
	OFFSET 0.00000 0.00000 0.00000
	CHANNELS 6 Xposition Yposition Zposition Zrotation Yrotation Xrotation 
	JOINT LHipJoint
	{
		OFFSET 0 0 0
		CHANNELS 3 Zrotation Yrotation Xrotation
		JOINT LeftUpLeg
		{
			OFFSET 1.56857 -1.73443 1.15205
			CHANNELS 3 Zrotation Yrotation Xrotation
			JOINT LeftLeg
			{
				OFFSET 2.39362 -6.57643 0.00000
				CHANNELS 3 Zrotation Yrotation Xrotation
				JOINT LeftFoot
				{
					OFFSET 2.50952 -6.89485 0.00000
					CHANNELS 3 Zrotation Yrotation Xrotation
					JOINT LeftToeBase
					{
						OFFSET 0.17171 -0.47178 1.88682
						CHANNELS 3 Zrotation Yrotation Xrotation
						End Site
						{
							OFFSET 0.00000 -0.00000 0.98146
						}
					}
				}
			}
		}
	}
	JOINT RHipJoint
	{
		OFFSET 0 0 0
		CHANNELS 3 Zrotation Yrotation Xrotation
		JOINT RightUpLeg
		{
			OFFSET -1.28153 -1.73443 1.15205
			CHANNELS 3 Zrotation Yrotation Xrotation
			JOINT RightLeg
			{
				OFFSET -2.26861 -6.23296 0.00000
				CHANNELS 3 Zrotation Yrotation Xrotation
				JOINT RightFoot
				{
					OFFSET -2.54143 -6.98254 0.00000
					CHANNELS 3 Zrotation Yrotation Xrotation
					JOINT RightToeBase
					{
						OFFSET -0.23309 -0.64041 1.93119
						CHANNELS 3 Zrotation Yrotation Xrotation
						End Site
						{
							OFFSET -0.00000 -0.00000 1.02013
						}
					}
				}
			}
		}
	}
	JOINT LowerBack
	{
		OFFSET 0 0 0
		CHANNELS 3 Zrotation Yrotation Xrotation
		JOINT Spine
		{
			OFFSET -0.07096 2.10460 -0.27878
			CHANNELS 3 Zrotation Yrotation Xrotation
			JOINT Spine1
			{
				OFFSET -0.00826 2.13662 -0.08279
				CHANNELS 3 Zrotation Yrotation Xrotation
				JOINT Neck
				{
					OFFSET 0 0 0
					CHANNELS 3 Zrotation Yrotation Xrotation
					JOINT Neck1
					{
						OFFSET 0.03239 1.77799 0.24435
						CHANNELS 3 Zrotation Yrotation Xrotation
						JOINT Head
						{
							OFFSET 0.01026 1.74194 -0.49664
							CHANNELS 3 Zrotation Yrotation Xrotation
							End Site
							{
								OFFSET 0.00170 1.83057 -0.19653
							}
						}
					}
				}
				JOINT LeftShoulder
				{
					OFFSET 0 0 0
					CHANNELS 3 Zrotation Yrotation Xrotation
					JOINT LeftArm
					{
						OFFSET 3.19178 1.35907 -0.31412
						CHANNELS 3 Zrotation Yrotation Xrotation
						JOINT LeftForeArm
						{
							OFFSET 4.85247 -0.00000 -0.00000
							CHANNELS 3 Zrotation Yrotation Xrotation
							JOINT LeftHand
							{
								OFFSET 3.55584 -0.00000 0.00000
								CHANNELS 3 Zrotation Yrotation Xrotation
								JOINT LeftFingerBase
								{
									OFFSET 0 0 0
									CHANNELS 3 Zrotation Yrotation Xrotation
									JOINT LeftHandIndex1
									{
										OFFSET 0.69320 -0.00000 0.00000
										CHANNELS 3 Zrotation Yrotation Xrotation
										End Site
										{
											OFFSET 0.55888 -0.00000 0.00000
										}
									}
								}
								JOINT LThumb
								{
									OFFSET 0 0 0
									CHANNELS 3 Zrotation Yrotation Xrotation
									End Site
									{
										OFFSET 0.56741 -0.00000 0.56741
									}
								}
							}
						}
					}
				}
				JOINT RightShoulder
				{
					OFFSET 0 0 0
					CHANNELS 3 Zrotation Yrotation Xrotation
					JOINT RightArm
					{
						OFFSET -3.28999 1.24191 -0.26899
						CHANNELS 3 Zrotation Yrotation Xrotation
						JOINT RightForeArm
						{
							OFFSET -4.64462 -0.00000 0.00000
							CHANNELS 3 Zrotation Yrotation Xrotation
							JOINT RightHand
							{
								OFFSET -3.40703 -0.00000 0.00000
								CHANNELS 3 Zrotation Yrotation Xrotation
								JOINT RightFingerBase
								{
									OFFSET 0 0 0
									CHANNELS 3 Zrotation Yrotation Xrotation
									JOINT RightHandIndex1
									{
										OFFSET -0.61958 -0.00000 0.00000
										CHANNELS 3 Zrotation Yrotation Xrotation
										End Site
										{
											OFFSET -0.49952 -0.00000 0.00000
										}
									}
								}
								JOINT RThumb
								{
									OFFSET 0 0 0
									CHANNELS 3 Zrotation Yrotation Xrotation
									End Site
									{
										OFFSET -0.50715 -0.00000 0.50715
									}
								}
							}
						}
					}
				}
			}
		}
	}
}
MOTION
Frames: 5
Frame Time: .0083333
13.6422 17.0163 -0.1067 131.2560 68.7408 134.4570 0.0000 0.0000 0.0000 -29.4171 3.1362 29.2799 8.6657 16.5877 54.9265 0.2434 12.9293 11.9312 0.0892 1.9264 5.3023 0.0000 0.0000 0.0000 -3.9129 -0.4502 -31.3263 -0.3514 -3.8085 10.5385 -0.9658 -1.6876 -19.2471 -0.0332 -1.1767 3.2352 -20.5612 -4.6413 9.3812 -1.8877 -8.0102 1.5184 9.9905 -3.8587 -1.0666 2.4329 2.4651 -25.9280 -1.4064 3.1145 25.8858 -0.3640 1.4658 13.0524 -0.0000 -0.0000 0.0000 -68.8999 -2.4767 59.6593 130.9433 -52.6079 -94.5772 -0.0000 0.0000 -3.4410 62.3650 -38.2686 -49.7905 -7.1250 0.0000 -0.0000 13.4955 -28.3217 -18.6129 -0.0000 -0.0000 0.0000 60.1387 -56.2789 37.4784 -67.8814 58.0682 -40.9690 0.0000 -0.0000 -19.7977 -23.6070 -29.8357 12.2670 7.1250 -0.0000 -0.0000 9.0344 -61.7992 -3.7094
14.2270 16.8891 -0.1207 130.9230 68.7097 133.3480 0.0000 0.0000 0.0000 -29.6387 3.1102 29.1484 9.9697 17.3928 59.3871 0.2820 8.9272 10.5808 0.0388 1.2713 3.4957 0.0000 0.0000 0.0000 -3.7724 -0.9111 -30.5160 -0.4691 -4.3929 12.1849 -0.9553 -0.9314 -18.8276 -0.0806 -1.8311 5.0390 -20.4828 -4.2614 9.9241 -2.0278 -7.6362 1.4998 9.8592 -3.6196 -1.5416 2.7413 2.2624 -25.2729 -1.5928 2.7750 25.6257 -0.5563 1.3290 12.8184 -0.0000 -0.0000 0.0000 -68.8900 -0.1875 60.2243 130.1179 -52.9478 -93.9200 -0.0000 0.0000 -2.8774 60.2897 -36.4705 -46.1693 -7.1250 0.0000 -0.0000 13.2716 -24.9956 -17.9735 -0.0000 -0.0000 0.0000 61.0545 -55.1632 36.3742 -67.8312 58.0591 -40.9264 0.0000 -0.0000 -19.4498 -24.3173 -30.3296 12.8541 7.1250 -0.0000 -0.0000 8.5098 -62.4835 -3.6296
14.8041 16.7613 -0.1476 130.5490 68.7456 132.1470 0.0000 0.0000 0.0000 -29.9076 3.1971 28.9829 11.3194 18.0879 63.8145 0.2809 7.1594 9.9890 0.0101 -0.6495 -1.7848 0.0000 0.0000 0.0000 -3.4815 -1.8481 -29.7721 -0.6177 -5.0299 13.9940 -0.9156 0.3076 -17.9875 -0.1185 -2.2195 6.1128 -20.2283 -3.8219 10.5162 -2.1057 -7.1665 1.5590 9.6904 -3.3440 -1.9977 2.6576 2.1383 -24.9264 -1.5255 2.6192 25.4407 -0.5472 1.2652 12.6692 -0.0000 -0.0000 0.0000 -69.0863 1.9137 60.6662 129.0371 -53.3766 -93.0549 -0.0000 0.0000 -1.9162 58.0083 -35.2059 -42.7044 -7.1250 0.0000 -0.0000 12.6605 -22.0675 -16.7965 -0.0000 -0.0000 0.0000 61.9791 -53.8233 35.0641 -67.7260 58.0398 -40.8371 0.0000 -0.0000 -19.1042 -24.6070 -30.5702 13.1120 7.1250 -0.0000 -0.0000 8.3184 -62.8040 -3.6101
15.3730 16.6305 -0.1814 129.3040 68.7804 130.1920 0.0000 0.0000 0.0000 -30.4054 3.5138 28.4910 12.7038 18.6726 68.2030 0.2843 6.1762 9.7926 0.0586 -1.5621 -4.2969 0.0000 0.0000 0.0000 -3.4101 -2.7113 -29.1419 -0.7911 -5.6776 15.8519 -0.7496 1.2404 -15.9835 -0.1748 -2.6931 7.4256 -20.1649 -3.2971 11.2214 -2.1284 -6.6497 1.4993 9.6879 -3.0202 -2.6305 2.2981 2.0240 -24.7143 -1.4851 2.5973 25.4028 -0.4770 1.2287 12.6053 -0.0000 0.0000 0.0000 -69.5442 4.0117 61.0599 127.9030 -53.8070 -92.1422 -0.0000 0.0000 -1.4516 56.0825 -34.6524 -40.2179 -7.1250 0.0000 -0.0000 11.9169 -20.1939 -15.5602 -0.0000 0.0000 0.0000 62.3944 -52.4049 34.1537 -67.5510 58.0074 -40.6886 0.0000 -0.0000 -18.9128 -25.2244 -30.1443 13.3097 7.1250 -0.0000 -0.0000 7.3250 -62.5314 -3.1294
15.9291 16.4966 -0.2173 126.8380 68.4610 127.3050 0.0000 0.0000 0.0000 -31.5064 3.8676 27.4447 14.1826 19.1685 72.7613 0.2607 5.5849 9.3079 0.1063 -2.1024 -5.7886 0.0000 0.0000 0.0000 -3.8186 -4.1336 -29.0874 -1.0028 -6.3724 17.8689 -0.4609 1.5430 -12.3818 -0.4230 -4.1741 11.5671 -20.6770 -2.7868 11.7595 -2.2621 -6.1832 1.3972 9.8430 -2.7174 -3.1517 2.1218 1.8562 -24.8362 -1.6557 2.4844 25.5259 -0.5323 1.1377 12.6761 0.0000 -0.0000 0.0000 -70.0942 6.0117 61.1154 125.9887 -54.4906 -90.5905 -0.0000 0.0000 -0.8879 55.1443 -33.7006 -38.5435 -7.1250 0.0000 -0.0000 11.7983 -18.5486 -15.1978 0.0000 -0.0000 0.0000 62.5214 -50.7197 33.5979 -67.5419 58.0057 -40.6809 0.0000 -0.0000 -18.6248 -25.7222 -29.7491 13.4439 7.1250 -0.0000 -0.0000 6.5049 -62.2551 -2.7350
